<svg xmlns="http://www.w3.org/2000/svg" xmlns:xlink="http://www.w3.org/1999/xlink" width="500" zoomAndPan="magnify" viewBox="0 0 375 374.999991" height="500" preserveAspectRatio="xMidYMid meet" version="1.0"><defs><clipPath id="ea45a1db26"><path d="M 31 269 L 112 269 L 112 347.039062 L 31 347.039062 Z M 31 269 " clip-rule="nonzero"/></clipPath><clipPath id="71f67e6aaa"><path d="M 148 239 L 229 239 L 229 347.039062 L 148 347.039062 Z M 148 239 " clip-rule="nonzero"/></clipPath><clipPath id="c9d9356396"><path d="M 265 156 L 346 156 L 346 347.039062 L 265 347.039062 Z M 265 156 " clip-rule="nonzero"/></clipPath><clipPath id="20890e5962"><path d="M 58.488281 225.664062 L 62.789062 225.664062 L 62.789062 229.273438 L 58.488281 229.273438 Z M 58.488281 225.664062 " clip-rule="nonzero"/></clipPath><clipPath id="17a9b2143a"><path d="M 62.773438 226.949219 C 60.824219 229.949219 59.023438 229.425781 58.648438 228.75 C 58.273438 228.148438 58.648438 226.273438 59.175781 225.824219 C 59.773438 225.375 62.175781 226.050781 62.175781 226.050781 " clip-rule="nonzero"/></clipPath></defs><g clip-path="url(#ea45a1db26)"><path fill="#ffffff" d="M 81.910156 273.796875 C 65.371094 275.355469 48.429688 276.554688 31.089844 276.554688 L 31.089844 333.652344 C 31.089844 340.726562 37.003906 347.039062 44.476562 347.039062 L 98.054688 347.039062 C 105.527344 347.039062 111.441406 341.125 111.441406 333.652344 L 111.441406 269.84375 L 111.042969 269.84375 C 102.371094 271.4375 92.90625 272.601562 81.910156 273.796875 " fill-opacity="1" fill-rule="nonzero"/></g><g clip-path="url(#71f67e6aaa)"><path fill="#ffffff" d="M 173.257812 257.652344 C 164.984375 260.011719 156.316406 261.972656 148.046875 263.53125 L 148.046875 333.617188 C 148.046875 340.726562 153.957031 347.003906 161.433594 347.003906 L 214.976562 347.003906 C 222.050781 347.003906 228.363281 341.125 228.363281 333.617188 L 228.363281 239.152344 C 220.09375 242.671875 211.820312 245.429688 203.183594 248.585938 C 193.71875 251.742188 183.886719 254.496094 173.257812 257.652344 " fill-opacity="1" fill-rule="nonzero"/></g><g clip-path="url(#c9d9356396)"><path fill="#ffffff" d="M 299.644531 200.15625 C 290.179688 207.230469 279.550781 213.941406 268.121094 220.25 C 267.359375 220.617188 266.164062 221.414062 265.398438 221.8125 L 265.398438 333.617188 C 265.398438 340.726562 271.277344 347.003906 278.753906 347.003906 L 332.332031 347.003906 C 339.804688 347.003906 345.714844 341.125 345.714844 333.617188 L 345.714844 156.839844 C 333.09375 172.585938 317.75 187.167969 299.644531 200.15625 " fill-opacity="1" fill-rule="nonzero"/></g><path fill="#ffffff" d="M 364.980469 40.683594 C 364.21875 32.414062 355.148438 27.695312 348.074219 31.648438 L 277.988281 68.253906 C 269.71875 72.570312 269.71875 84.394531 277.988281 88.714844 L 300.839844 100.9375 C 292.570312 116.683594 279.183594 131.628906 259.488281 145.8125 C 252.378906 150.929688 244.507812 156.042969 235.472656 161.160156 C 227.597656 165.511719 219.292969 169.429688 210.261719 173.382812 C 209.460938 173.78125 209.097656 173.78125 208.265625 174.179688 C 199.628906 177.699219 190.5625 181.253906 180.730469 184.410156 C 178.769531 185.207031 176.777344 185.574219 174.816406 186.371094 C 167.742188 188.730469 160.269531 190.722656 152.761719 192.683594 C 145.6875 194.640625 138.613281 196.203125 131.105469 197.796875 C 128.746094 198.195312 126.386719 198.59375 124.429688 198.960938 C 116.554688 200.554688 108.683594 202.113281 100.414062 202.914062 C 92.539062 204.109375 84.269531 205.269531 75.601562 206.066406 C 74.804688 206.066406 74.039062 206.066406 73.242188 206.464844 C 64.972656 207.230469 56.300781 208.027344 47.632812 208.425781 C 38.597656 208.824219 29.128906 209.222656 19.699219 209.222656 C 8.667969 209.222656 0 218.257812 0 228.886719 C 0 239.914062 9.066406 248.585938 19.699219 248.585938 C 150.800781 248.585938 261.84375 208.425781 314.992188 148.96875 C 315.390625 148.570312 315.789062 147.804688 316.1875 147.40625 C 320.105469 142.65625 323.660156 137.941406 327.183594 133.222656 C 327.613281 132.425781 328.378906 132.027344 328.777344 131.265625 C 331.53125 127.3125 333.492188 123.390625 335.851562 119.441406 L 357.109375 130.46875 C 365.378906 134.785156 375.246094 128.109375 374.050781 118.640625 L 364.980469 40.683594 " fill-opacity="1" fill-rule="nonzero"/><g clip-path="url(#20890e5962)"><g clip-path="url(#17a9b2143a)"><path fill="#ffffff" d="M 55.648438 222.824219 L 65.78125 222.824219 L 65.78125 232.648438 L 55.648438 232.648438 Z M 55.648438 222.824219 " fill-opacity="1" fill-rule="nonzero"/></g></g></svg>