<svg xmlns="http://www.w3.org/2000/svg" xmlns:xlink="http://www.w3.org/1999/xlink" width="1600" zoomAndPan="magnify" viewBox="0 0 1200 299.999988" height="400" preserveAspectRatio="xMidYMid meet" version="1.0"><defs><g/><clipPath id="112d3859df"><path d="M 43 204 L 106 204 L 106 263.449219 L 43 263.449219 Z M 43 204 " clip-rule="nonzero"/></clipPath><clipPath id="3a0717d20d"><path d="M 133 180 L 195 180 L 195 263.449219 L 133 263.449219 Z M 133 180 " clip-rule="nonzero"/></clipPath><clipPath id="34764c98ea"><path d="M 223 117 L 285 117 L 285 263.449219 L 223 263.449219 Z M 223 117 " clip-rule="nonzero"/></clipPath><clipPath id="9e839a7ae1"><path d="M 19.769531 20 L 307 20 L 307 189 L 19.769531 189 Z M 19.769531 20 " clip-rule="nonzero"/></clipPath></defs><g clip-path="url(#112d3859df)"><path fill="#ffffff" d="M 82.539062 207.324219 C 69.863281 208.519531 56.878906 209.4375 43.59375 209.4375 L 43.59375 253.191406 C 43.59375 258.613281 48.125 263.449219 53.851562 263.449219 L 94.910156 263.449219 C 100.636719 263.449219 105.167969 258.917969 105.167969 253.191406 L 105.167969 204.292969 L 104.863281 204.292969 C 98.21875 205.515625 90.964844 206.40625 82.539062 207.324219 " fill-opacity="1" fill-rule="nonzero"/></g><g clip-path="url(#3a0717d20d)"><path fill="#ffffff" d="M 152.535156 194.953125 C 146.199219 196.761719 139.554688 198.261719 133.21875 199.457031 L 133.21875 253.167969 C 133.21875 258.613281 137.75 263.425781 143.476562 263.425781 L 184.507812 263.425781 C 189.929688 263.425781 194.765625 258.917969 194.765625 253.167969 L 194.765625 180.773438 C 188.425781 183.472656 182.089844 185.585938 175.472656 188.003906 C 168.214844 190.421875 160.683594 192.535156 152.535156 194.953125 " fill-opacity="1" fill-rule="nonzero"/></g><g clip-path="url(#34764c98ea)"><path fill="#ffffff" d="M 249.390625 150.890625 C 242.136719 156.3125 233.992188 161.457031 225.234375 166.292969 C 224.648438 166.570312 223.730469 167.183594 223.148438 167.488281 L 223.148438 253.167969 C 223.148438 258.613281 227.652344 263.425781 233.378906 263.425781 L 274.4375 263.425781 C 280.164062 263.425781 284.695312 258.917969 284.695312 253.167969 L 284.695312 117.699219 C 275.023438 129.765625 263.261719 140.9375 249.390625 150.890625 " fill-opacity="1" fill-rule="nonzero"/></g><g clip-path="url(#9e839a7ae1)"><path fill="#ffffff" d="M 299.457031 28.6875 C 298.871094 22.347656 291.925781 18.734375 286.503906 21.761719 L 232.792969 49.8125 C 226.457031 53.121094 226.457031 62.183594 232.792969 65.492188 L 250.304688 74.859375 C 243.96875 86.925781 233.710938 98.378906 218.617188 109.25 C 213.167969 113.167969 207.136719 117.089844 200.210938 121.007812 C 194.179688 124.34375 187.816406 127.347656 180.894531 130.375 C 180.28125 130.679688 180.003906 130.679688 179.367188 130.988281 C 172.746094 133.683594 165.796875 136.410156 158.265625 138.828125 C 156.761719 139.4375 155.234375 139.71875 153.734375 140.328125 C 148.3125 142.136719 142.585938 143.664062 136.832031 145.164062 C 131.410156 146.667969 125.988281 147.863281 120.234375 149.085938 C 118.429688 149.390625 116.621094 149.695312 115.121094 149.976562 C 109.085938 151.199219 103.054688 152.394531 96.714844 153.003906 C 90.683594 153.921875 84.34375 154.8125 77.703125 155.421875 C 77.089844 155.421875 76.503906 155.421875 75.894531 155.726562 C 69.554688 156.3125 62.914062 156.925781 56.269531 157.230469 C 49.347656 157.535156 42.089844 157.839844 34.863281 157.839844 C 26.410156 157.839844 19.769531 164.765625 19.769531 172.910156 C 19.769531 181.359375 26.71875 188.003906 34.863281 188.003906 C 135.328125 188.003906 220.421875 157.230469 261.148438 111.667969 C 261.457031 111.363281 261.761719 110.777344 262.066406 110.46875 C 265.070312 106.832031 267.792969 103.214844 270.492188 99.601562 C 270.824219 98.992188 271.40625 98.683594 271.714844 98.101562 C 273.824219 95.070312 275.328125 92.066406 277.136719 89.039062 L 293.425781 97.488281 C 299.765625 100.796875 307.324219 95.683594 306.40625 88.425781 L 299.457031 28.6875 " fill-opacity="1" fill-rule="nonzero"/></g><g fill="#ffffff" fill-opacity="1"><g transform="translate(335.153141, 181.160394)"><g><path d="M 40.515625 1.484375 C 35.222656 1.484375 30.316406 0.566406 25.796875 -1.265625 C 21.285156 -3.097656 17.390625 -5.65625 14.109375 -8.9375 C 10.835938 -12.21875 8.285156 -16.113281 6.453125 -20.625 C 4.617188 -25.132812 3.703125 -30.035156 3.703125 -35.328125 C 3.703125 -40.617188 4.632812 -45.519531 6.5 -50.03125 C 8.375 -54.539062 10.945312 -58.453125 14.21875 -61.765625 C 17.5 -65.078125 21.378906 -67.664062 25.859375 -69.53125 C 30.335938 -71.40625 35.1875 -72.34375 40.40625 -72.34375 C 45.90625 -72.34375 51.015625 -71.285156 55.734375 -69.171875 C 60.460938 -67.054688 64.550781 -64.023438 68 -60.078125 L 57.21875 -49.609375 C 55.175781 -52.003906 52.757812 -53.890625 49.96875 -55.265625 C 47.1875 -56.640625 44.140625 -57.328125 40.828125 -57.328125 C 37.796875 -57.328125 35.007812 -56.78125 32.46875 -55.6875 C 29.925781 -54.59375 27.722656 -53.078125 25.859375 -51.140625 C 23.992188 -49.203125 22.546875 -46.890625 21.515625 -44.203125 C 20.492188 -41.523438 19.984375 -38.632812 19.984375 -35.53125 C 19.984375 -32.363281 20.507812 -29.4375 21.5625 -26.75 C 22.625 -24.070312 24.085938 -21.742188 25.953125 -19.765625 C 27.828125 -17.796875 30.066406 -16.265625 32.671875 -15.171875 C 35.285156 -14.078125 38.144531 -13.53125 41.25 -13.53125 C 44.632812 -13.53125 47.734375 -14.234375 50.546875 -15.640625 C 53.367188 -17.054688 55.769531 -18.960938 57.75 -21.359375 L 68.53125 -11.109375 C 65.144531 -7.085938 61.070312 -3.984375 56.3125 -1.796875 C 51.5625 0.390625 46.296875 1.484375 40.515625 1.484375 Z M 40.515625 1.484375 "/></g></g></g><g fill="#ffffff" fill-opacity="1"><g transform="translate(416.159726, 181.160394)"><g><path d="M 28.984375 -72.125 L 38.8125 -72.125 L 66.734375 0 L 50.453125 0 L 46.109375 -11.953125 L 21.6875 -11.953125 L 17.453125 0 L 1.0625 0 Z M 41.359375 -25.28125 L 33.953125 -46.109375 L 26.4375 -25.28125 Z M 41.359375 -25.28125 "/></g></g></g><g fill="#ffffff" fill-opacity="1"><g transform="translate(494.311032, 181.160394)"><g><path d="M 7.9375 -70.859375 L 30.140625 -70.859375 C 33.804688 -70.859375 37.207031 -70.296875 40.34375 -69.171875 C 43.488281 -68.046875 46.1875 -66.457031 48.4375 -64.40625 C 50.695312 -62.363281 52.457031 -59.929688 53.71875 -57.109375 C 54.988281 -54.285156 55.625 -51.21875 55.625 -47.90625 C 55.625 -43.675781 54.601562 -39.851562 52.5625 -36.4375 C 50.519531 -33.019531 47.703125 -30.359375 44.109375 -28.453125 L 60.703125 0 L 42.734375 0 L 28.984375 -24.859375 L 23.375 -24.859375 L 23.375 0 L 7.9375 0 Z M 29.40625 -38.5 C 32.71875 -38.5 35.34375 -39.328125 37.28125 -40.984375 C 39.21875 -42.640625 40.1875 -44.914062 40.1875 -47.8125 C 40.1875 -50.695312 39.195312 -52.84375 37.21875 -54.25 C 35.25 -55.664062 32.644531 -56.375 29.40625 -56.375 L 23.375 -56.375 L 23.375 -38.5 Z M 29.40625 -38.5 "/></g></g></g><g fill="#ffffff" fill-opacity="1"><g transform="translate(566.963308, 181.160394)"><g><path d="M 7.9375 -70.859375 L 48.4375 -70.859375 L 48.4375 -56.375 L 23.375 -56.375 L 23.375 -43.359375 L 41.671875 -43.359375 L 41.671875 -28.875 L 23.375 -28.875 L 23.375 -14.484375 L 48.96875 -14.484375 L 48.96875 0 L 7.9375 0 Z M 7.9375 -70.859375 "/></g></g></g><g fill="#ffffff" fill-opacity="1"><g transform="translate(631.578524, 181.160394)"><g><path d="M 7.9375 -70.859375 L 48.4375 -70.859375 L 48.4375 -56.375 L 23.375 -56.375 L 23.375 -43.359375 L 41.671875 -43.359375 L 41.671875 -28.875 L 23.375 -28.875 L 23.375 -14.484375 L 48.96875 -14.484375 L 48.96875 0 L 7.9375 0 Z M 7.9375 -70.859375 "/></g></g></g><g fill="#ffffff" fill-opacity="1"><g transform="translate(696.19374, 181.160394)"><g><path d="M 7.9375 -70.859375 L 30.140625 -70.859375 C 33.804688 -70.859375 37.207031 -70.296875 40.34375 -69.171875 C 43.488281 -68.046875 46.1875 -66.457031 48.4375 -64.40625 C 50.695312 -62.363281 52.457031 -59.929688 53.71875 -57.109375 C 54.988281 -54.285156 55.625 -51.21875 55.625 -47.90625 C 55.625 -43.675781 54.601562 -39.851562 52.5625 -36.4375 C 50.519531 -33.019531 47.703125 -30.359375 44.109375 -28.453125 L 60.703125 0 L 42.734375 0 L 28.984375 -24.859375 L 23.375 -24.859375 L 23.375 0 L 7.9375 0 Z M 29.40625 -38.5 C 32.71875 -38.5 35.34375 -39.328125 37.28125 -40.984375 C 39.21875 -42.640625 40.1875 -44.914062 40.1875 -47.8125 C 40.1875 -50.695312 39.195312 -52.84375 37.21875 -54.25 C 35.25 -55.664062 32.644531 -56.375 29.40625 -56.375 L 23.375 -56.375 L 23.375 -38.5 Z M 29.40625 -38.5 "/></g></g></g><g fill="#ffffff" fill-opacity="1"><g transform="translate(768.846031, 181.160394)"><g/></g></g><g fill="#ffffff" fill-opacity="1"><g transform="translate(802.476329, 181.160394)"><g><path d="M 40.515625 1.484375 C 35.222656 1.484375 30.316406 0.566406 25.796875 -1.265625 C 21.285156 -3.097656 17.390625 -5.65625 14.109375 -8.9375 C 10.835938 -12.21875 8.285156 -16.113281 6.453125 -20.625 C 4.617188 -25.132812 3.703125 -30.035156 3.703125 -35.328125 C 3.703125 -40.617188 4.632812 -45.519531 6.5 -50.03125 C 8.375 -54.539062 10.945312 -58.453125 14.21875 -61.765625 C 17.5 -65.078125 21.378906 -67.664062 25.859375 -69.53125 C 30.335938 -71.40625 35.1875 -72.34375 40.40625 -72.34375 C 45.90625 -72.34375 51.015625 -71.285156 55.734375 -69.171875 C 60.460938 -67.054688 64.550781 -64.023438 68 -60.078125 L 57.21875 -49.609375 C 55.175781 -52.003906 52.757812 -53.890625 49.96875 -55.265625 C 47.1875 -56.640625 44.140625 -57.328125 40.828125 -57.328125 C 37.796875 -57.328125 35.007812 -56.78125 32.46875 -55.6875 C 29.925781 -54.59375 27.722656 -53.078125 25.859375 -51.140625 C 23.992188 -49.203125 22.546875 -46.890625 21.515625 -44.203125 C 20.492188 -41.523438 19.984375 -38.632812 19.984375 -35.53125 C 19.984375 -32.363281 20.507812 -29.4375 21.5625 -26.75 C 22.625 -24.070312 24.085938 -21.742188 25.953125 -19.765625 C 27.828125 -17.796875 30.066406 -16.265625 32.671875 -15.171875 C 35.285156 -14.078125 38.144531 -13.53125 41.25 -13.53125 C 44.632812 -13.53125 47.734375 -14.234375 50.546875 -15.640625 C 53.367188 -17.054688 55.769531 -18.960938 57.75 -21.359375 L 68.53125 -11.109375 C 65.144531 -7.085938 61.070312 -3.984375 56.3125 -1.796875 C 51.5625 0.390625 46.296875 1.484375 40.515625 1.484375 Z M 40.515625 1.484375 "/></g></g></g><g fill="#ffffff" fill-opacity="1"><g transform="translate(883.4829, 181.160394)"><g><path d="M 7.9375 -70.859375 L 30.140625 -70.859375 C 33.804688 -70.859375 37.207031 -70.296875 40.34375 -69.171875 C 43.488281 -68.046875 46.1875 -66.457031 48.4375 -64.40625 C 50.695312 -62.363281 52.457031 -59.929688 53.71875 -57.109375 C 54.988281 -54.285156 55.625 -51.21875 55.625 -47.90625 C 55.625 -43.675781 54.601562 -39.851562 52.5625 -36.4375 C 50.519531 -33.019531 47.703125 -30.359375 44.109375 -28.453125 L 60.703125 0 L 42.734375 0 L 28.984375 -24.859375 L 23.375 -24.859375 L 23.375 0 L 7.9375 0 Z M 29.40625 -38.5 C 32.71875 -38.5 35.34375 -39.328125 37.28125 -40.984375 C 39.21875 -42.640625 40.1875 -44.914062 40.1875 -47.8125 C 40.1875 -50.695312 39.195312 -52.84375 37.21875 -54.25 C 35.25 -55.664062 32.644531 -56.375 29.40625 -56.375 L 23.375 -56.375 L 23.375 -38.5 Z M 29.40625 -38.5 "/></g></g></g><g fill="#ffffff" fill-opacity="1"><g transform="translate(956.135163, 181.160394)"><g><path d="M 28.984375 -72.125 L 38.8125 -72.125 L 66.734375 0 L 50.453125 0 L 46.109375 -11.953125 L 21.6875 -11.953125 L 17.453125 0 L 1.0625 0 Z M 41.359375 -25.28125 L 33.953125 -46.109375 L 26.4375 -25.28125 Z M 41.359375 -25.28125 "/></g></g></g><g fill="#ffffff" fill-opacity="1"><g transform="translate(1034.286469, 181.160394)"><g><path d="M 7.9375 -70.859375 L 47.90625 -70.859375 L 47.90625 -56.375 L 23.375 -56.375 L 23.375 -40.296875 L 41.140625 -40.296875 L 41.140625 -25.8125 L 23.375 -25.8125 L 23.375 0 L 7.9375 0 Z M 7.9375 -70.859375 "/></g></g></g><g fill="#ffffff" fill-opacity="1"><g transform="translate(1095.729158, 181.160394)"><g><path d="M 22.734375 -56.375 L 2.109375 -56.375 L 2.109375 -70.859375 L 58.8125 -70.859375 L 58.8125 -56.375 L 38.1875 -56.375 L 38.1875 0 L 22.734375 0 Z M 22.734375 -56.375 "/></g></g></g></svg>