<svg xmlns="http://www.w3.org/2000/svg" xmlns:xlink="http://www.w3.org/1999/xlink" width="500" zoomAndPan="magnify" viewBox="0 0 375 374.999991" height="500" preserveAspectRatio="xMidYMid meet" version="1.0"><defs><clipPath id="8373024085"><path d="M 31 269 L 112 269 L 112 347.132812 L 31 347.132812 Z M 31 269 " clip-rule="nonzero"/></clipPath><clipPath id="2d9a21aba5"><path d="M 148 239 L 229 239 L 229 347.132812 L 148 347.132812 Z M 148 239 " clip-rule="nonzero"/></clipPath><clipPath id="2c0c17daa5"><path d="M 265 156 L 346 156 L 346 347.132812 L 265 347.132812 Z M 265 156 " clip-rule="nonzero"/></clipPath><clipPath id="fc72e8006b"><path d="M 75.890625 215.578125 L 80.1875 215.578125 L 80.1875 219.222656 L 75.890625 219.222656 Z M 75.890625 215.578125 " clip-rule="nonzero"/></clipPath><clipPath id="a9dd9584f9"><path d="M 80.175781 216.898438 C 78.226562 219.898438 76.5 219.375 76.050781 218.699219 C 75.675781 218.101562 76.050781 216.226562 76.648438 215.773438 C 77.175781 215.324219 79.574219 215.925781 79.574219 215.925781 " clip-rule="nonzero"/></clipPath></defs><g clip-path="url(#8373024085)"><path fill="#040606" d="M 81.910156 273.867188 C 65.371094 275.429688 48.429688 276.625 31.089844 276.625 L 31.089844 333.742188 C 31.089844 340.820312 37.003906 347.132812 44.476562 347.132812 L 98.054688 347.132812 C 105.527344 347.132812 111.441406 341.21875 111.441406 333.742188 L 111.441406 269.914062 L 111.042969 269.914062 C 102.371094 271.507812 92.90625 272.671875 81.910156 273.867188 " fill-opacity="1" fill-rule="nonzero"/></g><g clip-path="url(#2d9a21aba5)"><path fill="#040606" d="M 173.257812 257.71875 C 164.984375 260.078125 156.316406 262.039062 148.046875 263.601562 L 148.046875 333.707031 C 148.046875 340.820312 153.957031 347.097656 161.433594 347.097656 L 214.976562 347.097656 C 222.050781 347.097656 228.363281 341.21875 228.363281 333.707031 L 228.363281 239.214844 C 220.09375 242.734375 211.820312 245.492188 203.183594 248.648438 C 193.71875 251.804688 183.886719 254.5625 173.257812 257.71875 " fill-opacity="1" fill-rule="nonzero"/></g><g clip-path="url(#2c0c17daa5)"><path fill="#040606" d="M 299.644531 200.207031 C 290.179688 207.28125 279.550781 213.996094 268.121094 220.308594 C 267.359375 220.671875 266.164062 221.46875 265.398438 221.871094 L 265.398438 333.707031 C 265.398438 340.820312 271.277344 347.097656 278.753906 347.097656 L 332.332031 347.097656 C 339.804688 347.097656 345.714844 341.21875 345.714844 333.707031 L 345.714844 156.878906 C 333.09375 172.628906 317.75 187.214844 299.644531 200.207031 " fill-opacity="1" fill-rule="nonzero"/></g><path fill="#040606" d="M 364.980469 40.6875 C 364.21875 32.414062 355.148438 27.695312 348.074219 31.648438 L 277.988281 68.265625 C 269.71875 72.585938 269.71875 84.414062 277.988281 88.734375 L 300.839844 100.960938 C 292.570312 116.707031 279.183594 131.660156 259.488281 145.847656 C 252.378906 150.964844 244.507812 156.082031 235.472656 161.199219 C 227.597656 165.550781 219.292969 169.472656 210.261719 173.425781 C 209.460938 173.824219 209.097656 173.824219 208.265625 174.222656 C 199.628906 177.746094 190.5625 181.300781 180.730469 184.457031 C 178.769531 185.253906 176.777344 185.621094 174.816406 186.417969 C 167.742188 188.777344 160.269531 190.769531 152.761719 192.730469 C 145.6875 194.691406 138.613281 196.253906 131.105469 197.847656 C 128.746094 198.246094 126.386719 198.644531 124.429688 199.011719 C 116.554688 200.605469 108.683594 202.167969 100.414062 202.964844 C 92.539062 204.160156 84.269531 205.324219 75.601562 206.121094 C 74.804688 206.121094 74.039062 206.121094 73.242188 206.519531 C 64.972656 207.28125 56.300781 208.082031 47.632812 208.480469 C 38.597656 208.878906 29.128906 209.277344 19.699219 209.277344 C 8.667969 209.277344 0 218.3125 0 228.945312 C 0 239.976562 9.066406 248.648438 19.699219 248.648438 C 150.800781 248.648438 261.84375 208.480469 314.992188 149.003906 C 315.390625 148.605469 315.789062 147.839844 316.1875 147.441406 C 320.105469 142.691406 323.660156 137.972656 327.183594 133.253906 C 327.613281 132.457031 328.378906 132.058594 328.777344 131.296875 C 331.53125 127.339844 333.492188 123.421875 335.851562 119.464844 L 357.109375 130.496094 C 365.378906 134.816406 375.246094 128.140625 374.050781 118.667969 L 364.980469 40.6875 " fill-opacity="1" fill-rule="nonzero"/><g clip-path="url(#fc72e8006b)"><g clip-path="url(#a9dd9584f9)"><path fill="#1e1e1e" d="M 73.050781 212.773438 L 83.183594 212.773438 L 83.183594 222.601562 L 73.050781 222.601562 Z M 73.050781 212.773438 " fill-opacity="1" fill-rule="nonzero"/></g></g></svg>